<svg width="82" height="24" viewBox="0 0 82 24" fill="none" xmlns="http://www.w3.org/2000/svg">
<path d="M5.40511 11.3233C4.32409 11.3233 3.37819 11.594 2.56743 12.1579C1.73414 12.6993 1.12606 13.4662 0.675639 14.4361C0.225213 15.406 0 16.4662 0 17.6617C0 18.9023 0.225213 20.0075 0.69816 20.9775C1.17111 21.9474 1.82422 22.6917 2.68003 23.2105C3.53584 23.7293 4.52678 24 5.63032 24C6.46361 24 7.25185 23.8647 8.01758 23.5489C8.7833 23.2556 9.4139 22.8045 9.95441 22.2181L8.58061 20.4135C8.24279 20.7744 7.83741 21.0677 7.36446 21.2707C6.89151 21.4737 6.41857 21.5865 5.94562 21.5865C5.06729 21.5865 4.36913 21.2932 3.87366 20.7519C3.37819 20.2105 3.08542 19.4887 3.01785 18.6316H10.585V17.7744C10.585 15.8572 10.1346 14.3008 9.21121 13.1053C8.31035 11.9098 7.02664 11.3233 5.40511 11.3233ZM3.01785 16.5564C3.04037 15.7895 3.24307 15.1353 3.62593 14.5714C4.00879 14.0075 4.57182 13.7368 5.31502 13.7143C6.12579 13.7143 6.71134 14.0075 7.07168 14.5714C7.45455 15.1579 7.65724 15.812 7.67976 16.5564H3.01785ZM18.1522 11.6165L15.6973 20.0978L13.2876 11.6165H10.0895L14.0983 23.6842H17.3414L21.3502 11.6165H18.1522ZM26.2823 11.3233C25.2013 11.3233 24.2554 11.594 23.4447 12.1579C22.6114 12.6993 22.0033 13.4662 21.5529 14.4361C21.1024 15.406 20.8772 16.4662 20.8772 17.6617C20.8772 18.9023 21.1024 20.0075 21.5754 20.9775C22.0483 21.9474 22.7015 22.6917 23.5573 23.2105C24.4131 23.7293 25.404 24 26.5076 24C27.3408 24 28.1291 23.8647 28.8948 23.5489C29.6605 23.2556 30.2911 22.8045 30.8316 22.2181L29.4578 20.4135C29.12 20.7744 28.7146 21.0677 28.2417 21.2707C27.7687 21.4737 27.2958 21.5865 26.8229 21.5865C25.9445 21.5865 25.2464 21.2932 24.7509 20.7519C24.2554 20.2105 23.9626 19.4887 23.8951 18.6316H31.4622V17.7744C31.4622 15.8572 31.0118 14.3008 30.0884 13.1053C29.1876 11.9098 27.9039 11.3233 26.2823 11.3233ZM23.9176 16.5564C23.9401 15.7895 24.1428 15.1353 24.5257 14.5714C24.886 14.0075 25.4491 13.7368 26.2148 13.7143C27.0255 13.7143 27.6111 14.0075 27.9714 14.5714C28.3543 15.1579 28.557 15.812 28.5795 16.5564H23.9176ZM38.8717 11.3233C38.1511 11.3233 37.4529 11.5038 36.8223 11.8647C36.1692 12.2481 35.6962 12.6767 35.3359 13.1955V11.6165H32.3406V23.6391H35.3359V15.4286C35.6062 15.0226 35.8989 14.6617 36.2818 14.3684C36.6647 14.0752 37.07 13.9399 37.543 13.9399C38.6015 13.9399 39.1195 14.5489 39.1195 15.7218V23.6842H42.0698V14.6165C42.0698 13.6015 41.822 12.7895 41.2815 12.203C40.7635 11.6165 39.9528 11.3233 38.8717 11.3233ZM48.6685 21.203C48.5109 21.2707 48.3307 21.2932 48.1505 21.2932C47.8577 21.2932 47.655 21.203 47.4974 20.9775C47.3397 20.7519 47.2722 20.4587 47.2722 20.0526V14.2105H49.2766V11.594H47.2722V8.30076H44.2768V11.6165H42.7004V14.2556H44.2768V20.797C44.2768 21.8571 44.5246 22.6466 45.02 23.188C45.5155 23.7068 46.2812 23.9775 47.3623 23.9549C48.3982 23.9549 49.164 23.7293 49.682 23.2556L49.0514 20.9549C48.9613 21.0451 48.8261 21.1353 48.6685 21.203ZM51.7764 6.22557C51.3035 6.22557 50.8756 6.40602 50.5152 6.76692C50.1549 7.12783 49.9747 7.5564 49.9747 8.05264C49.9747 8.54888 50.1549 8.95489 50.5152 9.3158C50.8756 9.65414 51.281 9.83459 51.7764 9.83459C52.2719 9.83459 52.6773 9.6767 53.0376 9.3158C53.3754 8.97745 53.5556 8.54888 53.5556 8.05264C53.5556 7.5564 53.398 7.12783 53.0376 6.76692C52.6998 6.40602 52.2719 6.22557 51.7764 6.22557ZM50.2675 23.6842H53.2628V11.6165H50.2675V23.6842ZM69.8385 12.1128C69.298 11.594 68.5548 11.3233 67.5864 11.3233C66.8657 11.3233 66.1901 11.5489 65.5144 11.9549C64.8613 12.3609 64.3658 12.8571 64.0731 13.4211C63.8929 12.7444 63.5776 12.2256 63.0596 11.8647C62.5416 11.5038 61.911 11.3233 61.1453 11.3233C60.4471 11.3233 59.749 11.5263 59.1184 11.9098C58.4878 12.2932 58.0374 12.7218 57.7671 13.1955V11.6165H54.7492V23.6842H57.7446V15.4737C57.9473 15.0677 58.24 14.7068 58.6229 14.4135C59.0058 14.1203 59.4112 13.9624 59.8165 13.9624C60.7399 13.9624 61.1903 14.5038 61.1903 15.5639V23.6842H64.1857V15.4737C64.4109 15.0677 64.7037 14.7068 65.064 14.4135C65.4243 14.1203 65.8297 13.9624 66.2576 13.9624C67.181 13.9624 67.6314 14.5038 67.6314 15.5639V23.7068H70.6268V14.5263C70.6268 13.4436 70.379 12.6316 69.8385 12.1128Z" fill="white"/>
<path d="M76.9102 5.09774C75.5139 3.69925 75.4688 1.51128 75.4688 0H75.1085C75.1085 1.51128 75.0635 3.69925 73.6671 5.09774C72.2708 6.49624 70.0863 6.54135 68.5773 6.54135V6.90226C70.0863 6.90226 72.2708 6.94737 73.6671 8.34586C75.0635 9.74436 75.1085 11.9323 75.1085 13.4436H75.4688C75.4688 11.9323 75.5139 9.74436 76.9102 8.34586C78.3065 6.94737 80.4911 6.90226 82 6.90226V6.54135C80.4911 6.54135 78.3065 6.49624 76.9102 5.09774Z" fill="#FECA27"/>
</svg>
